# AST/ASF file generated using VICON BodyLanguage
# -----------------------------------------------
:version 1.10
:name VICON
:units
  mass 1.0
  length 0.45
  angle deg
:documentation
   .ast/.asf automatically generated from VICON data using
   VICON BodyBuilder and BodyLanguage model FoxedUp or BRILLIANT.MOD
:root
   order TX TY TZ RX RY RZ
   axis XYZ
   position 0 0 0  
   orientation 0 0 0 
:bonedata
  begin
     id 1 
     name lhipjoint
     direction 0.440178 -0.822639 0.359871 
     length 2.53113 
     axis 0 0 0  XYZ
  end
  begin
     id 2 
     name lfemur
     direction 0.34202 -0.939693 0  
     length 7.88132  
     axis 0 0 20  XYZ
    dof rx ry rz
    limits (-160.0 20.0)
           (-70.0 70.0)
           (-60.0 70.0)
  end
  begin
     id 3 
     name ltibia
     direction 0.34202 -0.939693 0   
     length 8.43783   
     axis 0 0 20   XYZ
    dof rx
    limits (-10.0 170.0)
  end
  begin
     id 4 
     name lfoot
     direction 0.0886351 -0.243523 0.965837   
     length 2.63414   
     axis -90 7.62852e-016 20   XYZ
    dof rx rz
    limits (-45.0 90.0)
           (-70.0 20.0)
  end
  begin
     id 5 
     name ltoes
     direction 1.53703e-011 -4.21717e-011 1   
     length 1.31427   
     axis -90 7.62852e-016 20   XYZ
    dof rx
    limits (-90.0 20.0)
  end
  begin
     id 6 
     name rhipjoint
     direction -0.399779 -0.839773 0.367367   
     length 2.47948  
     axis 0 0 0  XYZ 
  end
  begin
     id 7 
     name rfemur
     direction -0.34202 -0.939693 0   
     length 7.74806   
     axis 0 0 -20   XYZ
    dof rx ry rz
    limits (-160.0 20.0)
           (-70.0 70.0)
           (-70.0 60.0)
  end
  begin
     id 8 
     name rtibia
     direction -0.34202 -0.939693 0   
     length 8.74432   
     axis 0 0 -20   XYZ
    dof rx
    limits (-10.0 170.0)
 end
 begin
     id 9 
     name rfoot
     direction -0.108514 -0.298139 0.948334   
     length 2.66102  
     axis -90 -7.62852e-016 -20   XYZ
    dof rx rz
    limits (-45.0 90.0)
           (-20.0 70.0)
  end
  begin
     id 10 
     name rtoes
     direction -1.53392e-011 -4.22077e-011 1   
     length 1.31983   
     axis -90 -7.62852e-016 -20   XYZ
    dof rx
    limits (-90.0 20.0)
  end
  begin
     id 11 
     name lowerback
     direction 0.0113257 0.999866 0.0118602   
     length 2.58694   
     axis 0 0 0   XYZ
    dof rx ry rz
    limits (-20.0 45.0)
           (-30.0 30.0)
           (-30.0 30.0)
  end
  begin
     id 12 
     name upperback
     direction -0.0164747 0.995193 -0.0965375   
     length 2.52368   
     axis 0 0 0   XYZ
    dof rx ry rz
    limits (-20.0 45.0)
           (-30.0 30.0)
           (-30.0 30.0)
  end
  begin
     id 13 
     name thorax
     direction -0.0194301 0.99433 -0.104552   
     length 2.56099   
     axis 0 0 0   XYZ
    dof rx ry rz
    limits (-20.0 45.0)
           (-30.0 30.0)
           (-30.0 30.0)
  end
  begin
     id 14 
     name lowerneck
     direction 0.0148543 0.995587 -0.092657   
     length 1.71582   
     axis 0 0 0   XYZ
    dof rx ry rz
    limits (-20.0 45.0)
           (-30.0 30.0)
           (-30.0 30.0)
  end
  begin
     id 15 
     name upperneck
     direction -0.0135467 0.993656 -0.111639   
     length 1.68937   
     axis 0 0 0   XYZ
    dof rx ry rz
    limits (-20.0 45.0)
           (-30.0 30.0)
           (-30.0 30.0)
  end
  begin
     id 16
     name head
     direction -0.00615349 0.999547 -0.029448  
     length 1.7462  
     axis 0 0 0   XYZ
    dof rx ry rz
    limits (-20.0 45.0)
           (-30.0 30.0)
           (-30.0 30.0)
  end
  begin
     id 17 
     name lclavicle
     direction 0.988267 0.149885 0.0293713  
     length 4.47222  
     axis 0 0 0   XYZ
    dof ry rz
    limits (-20.0 10.0)
           (0.0 20.0)
  end
  begin
     id 18 
     name lhumerus
     direction 1 -4.48986e-011 -1.14833e-027   
     length 5.37148   
     axis 180 -30 -90   XYZ
    dof rx ry rz
    limits (-60.0 90.0)
           (-90.0 90.0)
           (-90.0 90.0)
  end
  begin
     id 19
     name lradius
     direction 0.999998 0.00170963 -0.000987055   
     length 3.94212   
     axis 180 -30 -90   XYZ
    dof rx
    limits (-10.0 170.0)
  end
  begin
     id 20
     name lwrist
     direction 0.999998 7.53149e-005 -0.00194706   
     length 1.97106   
     axis 4.65056e-015 90 90   XYZ
    dof ry
    limits (-180.0 0.0)
 end
  begin
     id 21 
     name lhand
     direction 1 -4.48973e-011 -1.31746e-026   
     length 1.17917   
     axis 8.4065e-015 90 90   XYZ
    dof rx rz
    limits (-90.0 90.0)
           (-45.0 45.0)
  end
  begin
     id 22 
     name lfingers
     direction 1 -4.49107e-011 -2.63492e-026   
     length 0.950679   
     axis 1.6813e-014 90 90   XYZ
    dof rx
    limits (0.0 90.0)
  end
  begin
     id 23
     name lthumb
     direction 0.707107 -6.35048e-011 0.707107   
     length 1.36499   
     axis -90 45 2.85299e-015   XYZ
    dof rx rz
    limits (-45.0 45.0)
           (-45.0 45.0)
  end
  begin
     id 24 
     name rclavicle
     direction -0.996699 0.0642895 -0.0495725   
     length 4.62611  
     axis 0 0 0   XYZ 
    dof ry rz
    limits (-10.0 20.0)
           (-20.0 0.0)
  end
  begin
     id 25 
     name rhumerus
     direction -1 -4.48919e-011 -2.41059e-027  
     length 5.4981   
     axis 180 30 90   XYZ
    dof rx ry rz
    limits (-90.0 60.0)
           (-90.0 90.0)
           (-90.0 90.0)
  end
  begin
     id 26 
     name rradius
     direction -0.999999 0.00118101 -0.000681858   
     length 3.48381   
     axis 180 30 90   XYZ
    dof rx
    limits (-10.0 170.0)
  end
  begin
     id 27 
     name rwrist
     direction -0.999999 0.000321823 -0.00132288   
     length 1.7419   
     axis 4.65056e-015 -90 -90   XYZ
    dof ry
    limits (-180.0 0.0)
  end
  begin
     id 28
     name rhand
     direction -1 -4.49022e-011 -1.31746e-026   
     length 1.34932   
     axis 8.4065e-015 -90 -90   XYZ
    dof rx rz
    limits (-90.0 90.0)
           (-45.0 45.0)
  end
  begin
     id 29
     name rfingers
     direction -1 -4.49178e-011 -2.63492e-026   
     length 1.08785   
     axis 1.6813e-014 -90 -90   XYZ
    dof rx
    limits (0.0 90.0)
  end
  begin
     id 30
     name rthumb
     direction -0.707107 -6.34713e-011 0.707107   
     length 1.56195   
     axis -90 -45 -2.85299e-015   XYZ
    dof rx rz
    limits (-45.0 45.0)
           (-45.0 45.0)
  end
:hierarchy
  begin
    root lhipjoint rhipjoint lowerback
    lhipjoint lfemur
    lfemur ltibia
    ltibia lfoot
    lfoot ltoes
    rhipjoint rfemur
    rfemur rtibia
    rtibia rfoot
    rfoot rtoes
    lowerback upperback
    upperback thorax
    thorax lowerneck lclavicle rclavicle
    lowerneck upperneck
    upperneck head
    lclavicle lhumerus
    lhumerus lradius
    lradius lwrist
    lwrist lhand lthumb
    lhand lfingers
    rclavicle rhumerus
    rhumerus rradius
    rradius rwrist
    rwrist rhand rthumb
    rhand rfingers
  end

#!OML:ASF X:\für Bonn\!DataBase\2005_08_10_Bjorn_Final\c3d\bjorn.ASF
:FULLY-SPECIFIED
:DEGREES
16
root 1.24812 19.0186 2.57283 -178.159 -4.08555 -180.129
lowerback 2.1458 0.59079 2.76228
upperback 5.4497 0.429138 0.318779
thorax 4.44592 0.181566 -1.21988
lowerneck -12.9417 -2.26303 2.97994
upperneck 15.1863 -4.05304 0.723796
head 6.72479 -1.81318 -0.650276
rclavicle -3.08116e-015 -7.95139e-015
rhumerus 70.9453 1.75327 -79.1341
rradius 4.78044
rwrist 46.8051
rhand -15.1037 5.60386
rfingers 7.12502
rthumb 11.0647 -24.0845
lclavicle -3.08116e-015 -7.95139e-015
lhumerus 72.6295 -17.2879 71.5619
lradius 8.34149
lwrist -50.5686
lhand -18.6702 -2.29382
lfingers 7.12502
lthumb 7.62349 27.5488
rfemur -14.7258 -13.3107 18.4309
rtibia 37.0324
rfoot -20.8928 9.67188
rtoes -15.4853
lfemur -17.486 5.15314 -19.1245
ltibia 41.669
lfoot -15.0077 -5.64614
ltoes -9.27885
17
root 1.25086 18.976 2.61906 -178.393 -4.15016 -180.227
lowerback 3.246 0.592977 2.76009
upperback 5.58795 0.426089 0.285404
thorax 3.97004 0.158715 -1.26
lowerneck -13.1621 -2.31171 2.85058
upperneck 14.8535 -4.0521 0.670212
head 6.65645 -1.81759 -0.644426
rclavicle 1.19271e-014 7.15625e-015
rhumerus 71.1807 1.61499 -78.9782
rradius 4.892
rwrist 46.7908
rhand -15.2791 5.72532
rfingers 7.12502
rthumb 10.8956 -23.972
lclavicle 1.19271e-014 7.15625e-015
lhumerus 72.9856 -17.1547 71.3063
lradius 8.34349
lwrist -50.8043
lhand -19.2282 -2.0241
lfingers 7.12502
lthumb 7.08489 27.8373
rfemur -15.2428 -13.0437 18.3156
rtibia 38.2158
rfoot -21.2379 9.38147
rtoes -16.1987
lfemur -18.1424 4.85956 -19.2822
ltibia 43.028
lfoot -15.3485 -4.90744
ltoes -11.7018
18
root 1.25311 18.9256 2.66808 -178.644 -4.23781 -180.342
lowerback 4.37903 0.587017 2.74747
upperback 5.72641 0.409133 0.250626
thorax 3.47825 0.126783 -1.29545
lowerneck -13.3212 -2.35499 2.72529
upperneck 14.5021 -4.0404 0.592201
head 6.57111 -1.82003 -0.644974
rclavicle 1.05356e-014 -3.49861e-014
rhumerus 71.428 1.46642 -78.8128
rradius 4.94953
rwrist 46.8326
rhand -15.5166 5.80829
rfingers 7.12502
rthumb 10.6665 -23.901
lclavicle 1.05356e-014 -3.49861e-014
lhumerus 73.3353 -17.0158 71.0588
lradius 8.3183
lwrist -51.2049
lhand -19.885 -1.71936
lfingers 7.12502
lthumb 6.45081 28.1624
rfemur -15.8246 -12.836 18.1718
rtibia 39.5449
rfoot -21.6192 9.12706
rtoes -16.7971
lfemur -18.8462 4.54185 -19.4472
ltibia 44.4953
lfoot -15.7231 -4.21972
ltoes -13.7607
19
root 1.25591 18.8665 2.71829 -178.887 -4.30513 -180.44
lowerback 5.49547 0.587041 2.75688
upperback 5.86085 0.397894 0.209103
thorax 2.99552 0.0978922 -1.34952
lowerneck -13.3096 -2.3987 2.63833
upperneck 14.0436 -4.03182 0.516107
head 6.42176 -1.82516 -0.647511
rclavicle -6.26172e-015 1.19271e-015
rhumerus 71.6657 1.30308 -78.6651
rradius 5.00101
rwrist 46.9707
rhand -15.738 5.91932
rfingers 7.12502
rthumb 10.4529 -23.8008
lclavicle -6.26172e-015 1.19271e-015
lhumerus 73.6519 -16.916 70.8099
lradius 8.33556
lwrist -51.8136
lhand -20.6313 -1.39092
lfingers 7.12502
lthumb 5.73034 28.5116
rfemur -16.4814 -12.6351 18.0493
rtibia 40.9892
rfoot -22.0691 8.89162
rtoes -17.7167
lfemur -19.6089 4.20815 -19.5854
ltibia 46.0511
lfoot -16.1084 -3.57149
ltoes -15.6333
20
root 1.25823 18.7995 2.76989 -179.116 -4.37435 -180.573
lowerback 6.58591 0.593291 2.73935
upperback 6.01527 0.388188 0.153472
thorax 2.55125 0.0678488 -1.40249
lowerneck -13.3085 -2.44403 2.57362
upperneck 13.5477 -4.02812 0.425559
head 6.26196 -1.83269 -0.658369
rclavicle 1.69961e-014 -1.19271e-015
rhumerus 71.9654 1.10132 -78.5142
rradius 4.99826
rwrist 47.1698
rhand -15.9925 6.04006
rfingers 7.12502
rthumb 10.2074 -23.6923
lclavicle 1.69961e-014 -1.19271e-015
lhumerus 73.9532 -16.8087 70.5458
lradius 8.50231
lwrist -52.6231
lhand -21.3244 -1.08642
lfingers 7.12502
lthumb 5.06112 28.8331
rfemur -17.2224 -12.4928 17.889
rtibia 42.5478
rfoot -22.5664 8.67438
rtoes -18.8469
lfemur -20.4389 3.93197 -19.7573
ltibia 47.6956
lfoot -16.5075 -2.96241
ltoes -17.5573
21
root 1.26108 18.724 2.82127 -179.345 -4.4505 -180.707
lowerback 7.69156 0.595553 2.70416
upperback 6.1555 0.370249 0.11026
thorax 2.08633 0.0317612 -1.4319
lowerneck -13.2926 -2.48485 2.47034
upperneck 13.0745 -4.02111 0.369532
head 6.10909 -1.83831 -0.651928
rclavicle -4.96962e-016 -6.75868e-015
rhumerus 72.3074 0.934302 -78.3584
rradius 4.92282
rwrist 47.3687
rhand -16.2292 6.12367
rfingers 7.12502
rthumb 9.97902 -23.6198
lclavicle -4.96962e-016 -6.75868e-015
lhumerus 74.2709 -16.6861 70.2983
lradius 8.62287
lwrist -53.5946
lhand -22.0898 -0.824301
lfingers 7.12502
lthumb 4.32201 29.1116
rfemur -18.0122 -12.3541 17.7179
rtibia 44.2079
rfoot -23.0937 8.44567
rtoes -20.1857
lfemur -21.3101 3.63589 -19.9261
ltibia 49.4109
lfoot -16.9272 -2.35444
ltoes -19.415
22
root 1.26355 18.64 2.87163 -179.575 -4.51894 -180.822
lowerback 8.77245 0.606157 2.69739
upperback 6.31208 0.358413 0.0634287
thorax 1.65646 -0.00152963 -1.48068
lowerneck -13.3022 -2.53178 2.42291
upperneck 12.5899 -4.03009 0.275567
head 5.95528 -1.85189 -0.668189
rclavicle 6.26172e-015 -5.96354e-015
rhumerus 72.7521 0.694341 -78.1902
rradius 4.71604
rwrist 47.5222
rhand -16.4709 6.29596
rfingers 7.12502
rthumb 9.74585 -23.4585
lclavicle 6.26172e-015 -5.96354e-015
lhumerus 74.7497 -16.5021 70.0058
lradius 8.54511
lwrist -54.6736
lhand -22.9935 -0.634455
lfingers 7.12502
lthumb 3.44936 29.3174
rfemur -18.8487 -12.2321 17.5661
rtibia 45.9607
rfoot -23.711 8.18435
rtoes -21.8606
lfemur -22.2182 3.3994 -20.0783
ltibia 51.1965
lfoot -17.345 -1.64091
ltoes -21.6154
23
root 1.26623 18.5472 2.92192 -179.791 -4.57897 -180.973
lowerback 9.84297 0.62382 2.65378
upperback 6.47284 0.3489 0.0093914
thorax 1.23976 -0.0357571 -1.51596
lowerneck -13.4059 -2.57454 2.35167
upperneck 12.1501 -4.03744 0.196592
head 5.83272 -1.86373 -0.677806
rclavicle 2.13694e-014 -7.55382e-015
rhumerus 73.2382 0.445485 -78.0187
rradius 4.55437
rwrist 47.5877
rhand -16.5945 6.50181
rfingers 7.12502
rthumb 9.62656 -23.2582
lclavicle 2.13694e-014 -7.55382e-015
lhumerus 75.2961 -16.2997 69.7106
lradius 8.37515
lwrist -55.7349
lhand -24.0198 -0.519226
lfingers 7.12502
lthumb 2.45828 29.4464
rfemur -19.7536 -12.1316 17.3741
rtibia 47.8116
rfoot -24.3273 7.95452
rtoes -23.3378
lfemur -23.1575 3.21971 -20.2718
ltibia 53.0238
lfoot -17.7672 -0.884114
ltoes -23.8767
24
root 1.26933 18.4467 2.97025 -179.996 -4.65803 -181.142
lowerback 10.845 0.637235 2.56007
upperback 6.66006 0.320385 -0.0252684
thorax 0.889736 -0.0822273 -1.50063
lowerneck -13.539 -2.60812 2.26862
upperneck 11.6906 -4.03102 0.108039
head 5.70932 -1.87028 -0.687599
rclavicle 2.69353e-014 -5.56597e-015
rhumerus 73.7098 0.215261 -77.8314
rradius 4.5533
rwrist 47.4666
rhand -16.5817 6.71388
rfingers 7.12502
rthumb 9.63895 -23.0456
lclavicle 2.69353e-014 -5.56597e-015
lhumerus 75.8073 -16.072 69.4424
lradius 8.28132
lwrist -56.7563
lhand -25.0118 -0.492504
lfingers 7.12502
lthumb 1.5002 29.482
rfemur -20.7038 -12.0561 17.1578
rtibia 49.7459
rfoot -24.9562 7.78889
rtoes -24.5195
lfemur -24.136 3.07438 -20.4862
ltibia 54.8922
lfoot -18.1661 -0.150103
ltoes -26.0381
25
root 1.27165 18.3378 3.01569 -180.168 -4.74882 -181.399
lowerback 11.7625 0.660229 2.39474
upperback 6.86984 0.289108 -0.101418
thorax 0.611423 -0.131389 -1.48673
lowerneck -13.725 -2.64653 2.21153
upperneck 11.2597 -4.04691 0.0549365
head 5.60402 -1.88405 -0.693667
rclavicle -1.63997e-014 -8.74653e-015
rhumerus 74.1897 -0.0442583 -77.6757
rradius 4.62993
rwrist 47.2867
rhand -16.4523 6.91086
rfingers 7.12502
rthumb 9.76383 -22.8428
lclavicle -1.63997e-014 -8.74653e-015
lhumerus 76.2884 -15.8919 69.1555
lradius 8.29723
lwrist -57.663
lhand -26.0142 -0.387968
lfingers 7.12502
lthumb 0.531989 29.5911
rfemur -21.7243 -12.0398 16.8349
rtibia 51.7671
rfoot -25.5893 7.7227
rtoes -25.2654
lfemur -25.136 2.91785 -20.806
ltibia 56.7769
lfoot -18.5572 0.422974
ltoes -27.8236
26
root 1.27457 18.2219 3.05857 -180.322 -4.82931 -181.658
lowerback 12.6802 0.688298 2.2214
upperback 7.08671 0.255155 -0.165422
thorax 0.343368 -0.183962 -1.45466
lowerneck -14.1163 -2.68288 2.10551
upperneck 10.9238 -4.05869 -0.000386957
head 5.56374 -1.8964 -0.696827
rclavicle 2.41523e-014 8.34896e-015
rhumerus 74.6887 -0.30416 -77.5065
rradius 4.77072
rwrist 47.0424
rhand -16.274 7.10987
rfingers 7.12502
rthumb 9.93577 -22.6357
lclavicle 2.41523e-014 8.34896e-015
lhumerus 76.6886 -15.7228 68.8969
lradius 8.48555
lwrist -58.4211
lhand -26.9631 -0.28501
lfingers 7.12502
lthumb -0.384477 29.6944
rfemur -22.7875 -12.0065 16.5095
rtibia 53.8537
rfoot -26.2063 7.72183
rtoes -25.7041
lfemur -26.1544 2.80035 -21.1168
ltibia 58.6863
lfoot -18.9379 0.737206
ltoes -28.8078
27
root 1.2766 18.0985 3.09913 -180.485 -4.91135 -181.915
lowerback 13.6062 0.72224 2.06409
upperback 7.31719 0.220638 -0.23408
thorax 0.0889208 -0.23845 -1.43562
lowerneck -14.5711 -2.71476 2.00344
upperneck 10.6044 -4.07284 -0.0300735
head 5.53943 -1.90833 -0.694189
rclavicle 2.06736e-014 1.11319e-014
rhumerus 75.222 -0.586793 -77.3432
rradius 4.89302
rwrist 46.8309
rhand -16.1353 7.31746
rfingers 7.12502
rthumb 10.0697 -22.4216
lclavicle 2.06736e-014 1.11319e-014
lhumerus 77.1333 -15.5303 68.6217
lradius 8.6409
lwrist -58.9794
lhand -27.902 -0.282612
lfingers 7.12502
lthumb -1.29122 29.6932
rfemur -23.8734 -12.0235 16.1714
rtibia 56.0008
rfoot -26.8259 7.82867
rtoes -25.9109
lfemur -27.1685 2.67982 -21.4363
ltibia 60.6176
lfoot -19.341 1.04422
ltoes -29.6546
28
root 1.27968 17.9662 3.13873 -180.584 -4.99107 -182.141
lowerback 14.4178 0.759438 1.9432
upperback 7.55927 0.188114 -0.305422
thorax -0.0883765 -0.29015 -1.43939
lowerneck -15.0121 -2.74187 1.94492
upperneck 10.2597 -4.09157 -0.0580815
head 5.50363 -1.92211 -0.698021
rclavicle -2.98177e-016 -8.34896e-015
rhumerus 75.8217 -0.896715 -77.2012
rradius 4.93664
rwrist 46.7779
rhand -16.063 7.53734
rfingers 7.12502
rthumb 10.1394 -22.1983
lclavicle -2.98177e-016 -8.34896e-015
lhumerus 77.629 -15.3255 68.3166
lradius 8.76528
lwrist -59.3877
lhand -28.8347 -0.332643
lfingers 7.12502
lthumb -2.19208 29.6358
rfemur -25.0621 -12.0336 15.8862
rtibia 58.2072
rfoot -27.4591 7.90583
rtoes -26.2167
lfemur -28.2751 2.59685 -21.7175
ltibia 62.5795
lfoot -19.7423 1.22044
ltoes -30.2174
29
root 1.2819 17.8259 3.17769 -180.686 -5.0923 -182.277
lowerback 15.1895 0.784975 1.86746
upperback 7.81089 0.140089 -0.326941
thorax -0.231572 -0.350329 -1.41374
lowerneck -15.3879 -2.752 1.94028
upperneck 9.86632 -4.09489 -0.122007
head 5.4397 -1.93102 -0.718824
rclavicle 2.74323e-014 -1.03368e-014
rhumerus 76.4245 -1.19064 -77.0433
rradius 5.00191
rwrist 46.8848
rhand -16.068 7.7305
rfingers 7.12502
rthumb 10.1345 -22.0054
lclavicle 2.74323e-014 -1.03368e-014
lhumerus 78.1672 -15.0593 68.0268
lradius 8.84152
lwrist -59.6031
lhand -29.7106 -0.494226
lfingers 7.12502
lthumb -3.03797 29.4639
rfemur -26.2855 -12.0547 15.6946
rtibia 60.4715
rfoot -28.0877 7.99088
rtoes -26.3884
lfemur -29.4019 2.52778 -21.897
ltibia 64.5737
lfoot -20.1844 1.25793
ltoes -30.2599
